#N canvas 61 4 1636 1002 10;
#X obj 309 759 gain~;
#X obj 335 759 gain~;
#X obj 309 957 dac~;
#X obj 309 903 *~ 0.1;
#X obj 357 903 *~ 0.1;
#X obj 113 464 osc~;
#X obj 237 523 osc~;
#X obj 98 584 *~;
#X obj 238 476 *~;
#X obj 256 396 osc~ 0.2;
#X obj 62 494 phasor~;
#X obj 62 472 *~ 0.5;
#X obj 256 450 +~ 3;
#X obj 319 428 int;
#X obj 237 501 *~ 0.25;
#X obj 62 538 lop~ 1000;
#X obj 103 147 int;
#X obj 256 424 *~ 0.001;
#X obj 78 415 mtof~;
#X obj 82 383 +~;
#X obj 103 235 sig~;
#X obj 266 275 osc~ 7;
#X obj 266 297 *~ 0.01;
#X obj 698 597 / 127;
#X obj 579 19 ctlin;
#X obj 579 67 pack 0 0;
#X obj 579 128 vsl 10 50 0 127 0 0 empty empty empty 0 -9 0 10 -262144
-1 -1 4013 1;
#X obj 598 128 vsl 10 50 0 127 0 0 empty empty empty 0 -9 0 10 -262144
-1 -1 733 1;
#X obj 618 128 vsl 10 50 0 127 0 0 empty empty empty 0 -9 0 10 -262144
-1 -1 4900 1;
#X obj 638 128 vsl 10 50 0 127 0 0 empty empty empty 0 -9 0 10 -262144
-1 -1 0 1;
#X obj 657 128 vsl 10 50 0 127 0 0 empty empty empty 0 -9 0 10 -262144
-1 -1 0 1;
#X obj 677 128 vsl 10 50 0 127 0 0 empty empty empty 0 -9 0 10 -262144
-1 -1 0 1;
#X obj 697 128 vsl 10 50 0 127 0 0 empty empty empty 0 -9 0 10 -262144
-1 -1 0 1;
#X obj 716 128 vsl 10 50 0 127 0 0 empty empty empty 0 -9 0 10 -262144
-1 -1 2006 1;
#X obj 579 43 swap;
#X obj 322 173 * 0.5;
#X obj 334 376 * 0.103;
#X obj 334 398 + 3;
#X obj 103 191 midiminor;
#X obj 103 125 * 0.189;
#X obj 736 128 vsl 10 50 0 127 0 0 empty empty empty 0 -9 0 10 -262144
-1 -1 0 1;
#X obj 756 128 vsl 10 50 0 127 0 0 empty empty empty 0 -9 0 10 -262144
-1 -1 0 1;
#X obj 775 128 vsl 10 50 0 127 0 0 empty empty empty 0 -9 0 10 -262144
-1 -1 0 1;
#X obj 795 128 vsl 10 50 0 127 0 0 empty empty empty 0 -9 0 10 -262144
-1 -1 0 1;
#X obj 815 128 vsl 10 50 0 127 0 0 empty empty empty 0 -9 0 10 -262144
-1 -1 0 1;
#X obj 834 128 vsl 10 50 0 127 0 0 empty empty empty 0 -9 0 10 -262144
-1 -1 0 1;
#X obj 854 128 vsl 10 50 0 127 0 0 empty empty empty 0 -9 0 10 -262144
-1 -1 0 1;
#X obj 874 128 vsl 10 50 0 127 0 0 empty empty empty 0 -9 0 10 -262144
-1 -1 0 1;
#X text 583 109 Sliders;
#X text 741 111 Buttons;
#X obj 166 81 gate 2;
#X obj 165 22 / 127;
#X obj 165 44 + 1;
#X obj 207 190 int;
#X obj 207 212 + 1;
#X obj 207 234 * 12;
#X obj 137 260 +~;
#X obj 206 168 * 0.05;
#X floatatom 162 282 3 0 0 0 - - -, f 3;
#X floatatom 25 262 5 0 0 0 - - -, f 5;
#X obj 134 546 overdrive~ 1.1;
#X obj 403 481 log;
#X obj 403 456 + 1;
#X obj 266 319 *~, f 10;
#X obj 387 715 *~ 0.5;
#X obj 337 717 *~ 0.5;
#X text 64 261 Pitch;
#X text 184 279 Octave;
#X obj 55 219 - 24;
#X obj 136 514 +~;
#X obj 62 516 -~ 0.5;
#X text 336 319 vibrato;
#X text 268 522 harmonic;
#X text 146 464 fundamental;
#X text 11 496 saw sub;
#X obj 103 169 + 12;
#X obj 103 213 - 3;
#X floatatom 153 146 5 0 0 0 - - -, f 5;
#X text 913 79 golf vorm diversiteit fixen;
#X text 913 52 tape read fixen;
#X obj 311 488 number~;
#X text 910 102 fix on the fly tuning;
#X text 916 24 fix bluescreens;
#X floatatom 657 59 5 0 0 0 - - -, f 5;
#X obj 579 91 route 10 11 12 13 14 15 16 17 18 19 20 21 22 23 24 25
;
#X obj 447 696 hsl 128 15 0.01 1 1 0 empty empty empty -2 -8 0 10 -262144
-1 -1 8262 1;
#X obj 568 652 lofidelay~ 1900 0.5;
#X obj 573 623 lofidelay~ 1500 0.5;
#X obj 634 599 + 10;
#X obj 266 209 sig~;
#X obj 266 231 *~ 0.1;
#X obj 266 253 +~ 1;
#X obj 341 207 + 0.1;
#X obj 322 240 sig~;
#X obj 324 273 *~;
#X obj 357 261 + 1;
#X obj 397 507 sig~;
#X obj 158 642 *~;
#X obj 456 463 / 127;
#X obj 396 528 *~ 1;
#X obj 403 431 * 0.01352;
#X obj 456 485 * -2;
#X obj 456 507 + 1;
#X obj 396 557 +~ 0;
#X obj 617 503 * 7;
#X obj 615 528 + 10;
#X text 912 136 voeg filter toe;
#X obj 675 691 loadbang;
#X obj 976 461 import mrpeach;
#X obj 1054 709 packOSC;
#X obj 1054 825 udpsend;
#X obj 1137 537 pack 0 0;
#X obj 1188 515 t b f;
#X obj 1137 493 r pitch;
#X obj 1188 493 r octave;
#X obj 22 291 s pitch;
#X obj 164 306 s octave;
#X msg 1081 781 connect localhost 12000;
#X msg 1243 783 disconnect;
#X msg 1137 559 send /pitch \$1 \$2;
#X obj 973 539 pack 0 0;
#X obj 1024 517 t b f;
#X obj 973 495 r delay;
#X obj 1024 495 r feedback;
#X obj 629 549 s delay;
#X obj 707 620 s feedback;
#X msg 973 561 sendtyped /delay ff \$1 \$2;
#X msg 958 614 send /shake;
#X obj 1079 744 loadbang;
#X obj 254 904 s~ ampL;
#X obj 404 902 s~ ampR;
#X obj 1175 596 r~ ampL;
#X obj 1226 596 r~ ampR;
#X msg 1175 684 send /amp \$1 \$2;
#X obj 1175 662 pack f f, f 9;
#X obj 1175 640 + 0.01;
#X obj 1226 640 + 0.01;
#X obj 912 577 sel 127;
#X obj 1175 618 avg~;
#X obj 1226 618 avg~;
#X obj 1262 542 loadbang;
#X obj 1262 570 tgl 15 0 empty empty empty 17 7 0 10 -262144 -1 -1
1 1;
#X obj 1277 596 metro 10;
#X obj 840 585 sel 127 0;
#X obj 844 629 bng 15 250 50 0 empty empty empty 17 7 0 10 -262144
-1 -1;
#X obj 881 613 bng 15 250 50 0 empty empty empty 17 7 0 10 -262144
-1 -1;
#X msg 869 661 send /fmon;
#X msg 884 637 send /fmoff;
#X obj 129 668 s~ fx;
#X obj 518 592 r~ fx;
#X msg 674 721 0.2;
#X msg 709 784 2;
#X obj 700 827 +;
#X floatatom 703 859 5 0 0 0 - - -, f 5;
#X obj 703 886 - 1;
#X floatatom 704 913 5 0 0 0 - - -, f 5;
#X text 757 912 quick maths;
#X connect 0 0 3 0;
#X connect 0 0 129 0;
#X connect 0 1 1 1;
#X connect 1 0 4 0;
#X connect 1 0 130 0;
#X connect 3 0 2 0;
#X connect 4 0 2 1;
#X connect 5 0 69 0;
#X connect 6 0 69 1;
#X connect 7 0 97 0;
#X connect 8 0 14 0;
#X connect 9 0 17 0;
#X connect 10 0 70 0;
#X connect 11 0 10 0;
#X connect 12 0 8 1;
#X connect 12 0 80 0;
#X connect 13 0 12 1;
#X connect 14 0 6 0;
#X connect 15 0 7 0;
#X connect 16 0 75 0;
#X connect 17 0 12 0;
#X connect 18 0 5 0;
#X connect 18 0 11 0;
#X connect 18 0 8 0;
#X connect 19 0 18 0;
#X connect 20 0 56 0;
#X connect 21 0 22 0;
#X connect 22 0 63 0;
#X connect 23 0 86 2;
#X connect 23 0 87 2;
#X connect 23 0 125 0;
#X connect 24 0 34 0;
#X connect 24 1 34 1;
#X connect 24 1 83 0;
#X connect 25 0 84 0;
#X connect 26 0 50 1;
#X connect 27 0 36 0;
#X connect 28 0 35 0;
#X connect 29 0 100 0;
#X connect 32 0 104 0;
#X connect 33 0 23 0;
#X connect 34 0 25 0;
#X connect 34 1 25 1;
#X connect 35 0 89 0;
#X connect 35 0 93 0;
#X connect 36 0 37 0;
#X connect 37 0 13 0;
#X connect 38 0 68 0;
#X connect 38 0 76 0;
#X connect 39 0 16 0;
#X connect 40 0 51 0;
#X connect 42 0 92 0;
#X connect 42 0 95 0;
#X connect 42 0 143 0;
#X connect 43 0 98 0;
#X connect 43 0 137 0;
#X connect 50 0 39 0;
#X connect 50 1 57 0;
#X connect 51 0 52 0;
#X connect 52 0 50 0;
#X connect 53 0 54 0;
#X connect 54 0 55 0;
#X connect 55 0 56 1;
#X connect 55 0 58 0;
#X connect 56 0 19 0;
#X connect 57 0 53 0;
#X connect 58 0 116 0;
#X connect 59 0 115 0;
#X connect 60 0 7 1;
#X connect 61 0 96 0;
#X connect 62 0 61 0;
#X connect 63 0 19 1;
#X connect 64 0 1 0;
#X connect 65 0 0 0;
#X connect 68 0 59 0;
#X connect 69 0 60 0;
#X connect 70 0 15 0;
#X connect 75 0 38 0;
#X connect 76 0 20 0;
#X connect 77 0 38 1;
#X connect 84 0 26 0;
#X connect 84 1 27 0;
#X connect 84 2 28 0;
#X connect 84 3 29 0;
#X connect 84 4 30 0;
#X connect 84 5 31 0;
#X connect 84 6 32 0;
#X connect 84 7 33 0;
#X connect 84 8 40 0;
#X connect 84 9 41 0;
#X connect 84 10 42 0;
#X connect 84 11 43 0;
#X connect 84 12 44 0;
#X connect 84 13 45 0;
#X connect 84 14 46 0;
#X connect 84 15 47 0;
#X connect 85 0 64 1;
#X connect 85 0 65 1;
#X connect 86 0 64 0;
#X connect 87 0 65 0;
#X connect 88 0 87 1;
#X connect 89 0 90 0;
#X connect 90 0 91 0;
#X connect 91 0 21 0;
#X connect 92 0 90 1;
#X connect 93 0 94 0;
#X connect 94 0 63 1;
#X connect 95 0 94 1;
#X connect 96 0 99 0;
#X connect 97 0 1 0;
#X connect 97 0 0 0;
#X connect 97 0 148 0;
#X connect 98 0 101 0;
#X connect 98 0 103 1;
#X connect 99 0 103 0;
#X connect 100 0 62 0;
#X connect 101 0 102 0;
#X connect 102 0 99 1;
#X connect 103 0 97 1;
#X connect 104 0 105 0;
#X connect 105 0 86 1;
#X connect 105 0 88 0;
#X connect 105 0 124 0;
#X connect 107 0 150 0;
#X connect 109 0 110 0;
#X connect 111 0 119 0;
#X connect 112 0 111 0;
#X connect 112 1 111 1;
#X connect 113 0 111 0;
#X connect 114 0 112 0;
#X connect 117 0 110 0;
#X connect 118 0 110 0;
#X connect 119 0 109 0;
#X connect 120 0 126 0;
#X connect 121 0 120 0;
#X connect 121 1 120 1;
#X connect 122 0 120 0;
#X connect 123 0 121 0;
#X connect 126 0 109 0;
#X connect 127 0 109 0;
#X connect 128 0 117 0;
#X connect 131 0 138 0;
#X connect 132 0 139 0;
#X connect 133 0 109 0;
#X connect 134 0 133 0;
#X connect 135 0 134 0;
#X connect 136 0 134 1;
#X connect 137 0 127 0;
#X connect 138 0 135 0;
#X connect 139 0 136 0;
#X connect 140 0 141 0;
#X connect 141 0 142 0;
#X connect 142 0 139 0;
#X connect 142 0 138 0;
#X connect 143 0 144 0;
#X connect 143 1 145 0;
#X connect 144 0 146 0;
#X connect 145 0 147 0;
#X connect 146 0 109 0;
#X connect 147 0 109 0;
#X connect 149 0 87 0;
#X connect 149 0 86 0;
#X connect 150 0 85 0;
#X connect 151 0 152 0;
#X connect 151 0 152 1;
#X connect 152 0 153 0;
#X connect 153 0 154 0;
#X connect 154 0 155 0;
