#N canvas 61 4 1367 1002 10;
#X obj 309 759 gain~;
#X obj 335 759 gain~;
#X obj 309 957 dac~;
#X obj 309 903 *~ 0.1;
#X obj 357 903 *~ 0.1;
#X obj 151 486 osc~;
#X obj 275 545 osc~;
#X obj 136 606 *~;
#X obj 276 498 *~;
#X obj 294 418 osc~ 0.2;
#X obj 100 516 phasor~;
#X obj 100 494 *~ 0.5;
#X obj 294 472 +~ 3;
#X obj 357 450 int;
#X obj 275 523 *~ 0.25;
#X obj 100 560 lop~ 1000;
#X obj 126 171 int;
#X obj 294 446 *~ 0.001;
#X obj 116 437 mtof~;
#X obj 120 405 +~;
#X obj 126 259 sig~;
#X obj 289 299 osc~ 7;
#X obj 289 321 *~ 0.01;
#X obj 728 593 / 127;
#X obj 579 19 ctlin;
#X obj 579 67 pack 0 0;
#X obj 579 128 vsl 10 50 0 127 0 0 empty empty empty 0 -9 0 10 -262144
-1 -1 2500 1;
#X obj 598 128 vsl 10 50 0 127 0 0 empty empty empty 0 -9 0 10 -262144
-1 -1 0 1;
#X obj 618 128 vsl 10 50 0 127 0 0 empty empty empty 0 -9 0 10 -262144
-1 -1 0 1;
#X obj 638 128 vsl 10 50 0 127 0 0 empty empty empty 0 -9 0 10 -262144
-1 -1 0 1;
#X obj 657 128 vsl 10 50 0 127 0 0 empty empty empty 0 -9 0 10 -262144
-1 -1 0 1;
#X obj 677 128 vsl 10 50 0 127 0 0 empty empty empty 0 -9 0 10 -262144
-1 -1 0 1;
#X obj 697 128 vsl 10 50 0 127 0 0 empty empty empty 0 -9 0 10 -262144
-1 -1 2950 1;
#X obj 716 128 vsl 10 50 0 127 0 0 empty empty empty 0 -9 0 10 -262144
-1 -1 800 1;
#X obj 579 43 swap;
#X obj 345 197 * 0.5;
#X obj 372 398 * 0.103;
#X obj 372 420 + 3;
#X obj 126 215 midiminor;
#X obj 126 149 * 0.189;
#X obj 736 128 vsl 10 50 0 127 0 0 empty empty empty 0 -9 0 10 -262144
-1 -1 4900 1;
#X obj 756 128 vsl 10 50 0 127 0 0 empty empty empty 0 -9 0 10 -262144
-1 -1 0 1;
#X obj 775 128 vsl 10 50 0 127 0 0 empty empty empty 0 -9 0 10 -262144
-1 -1 0 1;
#X obj 795 128 vsl 10 50 0 127 0 0 empty empty empty 0 -9 0 10 -262144
-1 -1 0 1;
#X obj 815 128 vsl 10 50 0 127 0 0 empty empty empty 0 -9 0 10 -262144
-1 -1 0 1;
#X obj 834 128 vsl 10 50 0 127 0 0 empty empty empty 0 -9 0 10 -262144
-1 -1 0 1;
#X obj 854 128 vsl 10 50 0 127 0 0 empty empty empty 0 -9 0 10 -262144
-1 -1 0 1;
#X obj 874 128 vsl 10 50 0 127 0 0 empty empty empty 0 -9 0 10 -262144
-1 -1 0 1;
#X text 583 109 Sliders;
#X text 741 111 Buttons;
#X obj 189 105 gate 2;
#X obj 188 46 / 127;
#X obj 188 68 + 1;
#X obj 230 214 int;
#X obj 230 236 + 1;
#X obj 230 258 * 12;
#X obj 160 284 +~;
#X obj 229 192 * 0.05;
#X floatatom 185 306 3 0 0 0 - - -, f 3;
#X floatatom 48 286 5 0 0 0 - - -, f 5;
#X obj 172 568 overdrive~ 1.1;
#X obj 441 503 log;
#X obj 441 478 + 1;
#X obj 289 343 *~, f 10;
#X obj 444 723 *~ 0.5;
#X obj 394 725 *~ 0.5;
#X text 87 285 Pitch;
#X text 207 303 Octave;
#X obj 78 243 - 24;
#X obj 174 536 +~;
#X obj 100 538 -~ 0.5;
#X text 359 343 vibrato;
#X text 306 544 harmonic;
#X text 184 486 fundamental;
#X text 49 518 saw sub;
#X obj 126 193 + 12;
#X obj 126 237 - 3;
#X floatatom 176 170 5 0 0 0 - - -, f 5;
#X text 913 79 golf vorm diversiteit fixen;
#X text 913 52 tape read fixen;
#X obj 349 510 number~;
#X text 910 102 fix on the fly tuning;
#X text 916 24 fix bluescreens;
#X floatatom 657 59 5 0 0 0 - - -, f 5;
#X obj 579 91 route 10 11 12 13 14 15 16 17 18 19 20 21 22 23 24 25
;
#X obj 509 703 hsl 128 15 0.01 1 1 0 empty empty empty -2 -8 0 10 -262144
-1 -1 10788 1;
#X obj 614 648 lofidelay~ 1900 0.5;
#X obj 605 618 lofidelay~ 1500 0.5;
#X obj 664 595 + 10;
#X obj 289 233 sig~;
#X obj 289 255 *~ 0.1;
#X obj 289 277 +~ 1;
#X obj 364 231 + 0.1;
#X obj 345 264 sig~;
#X obj 347 297 *~;
#X obj 380 285 + 1;
#X obj 435 529 sig~;
#X obj 168 711 *~;
#X obj 494 485 / 127;
#X obj 434 550 *~ 1;
#X obj 441 453 * 0.01352;
#X obj 494 507 * -2;
#X obj 494 529 + 1;
#X obj 434 579 +~ 0;
#X obj 638 526 * 7;
#X obj 636 551 + 10;
#X obj 1390 892 *~ 0.25;
#X text 912 136 voeg filter toe;
#X msg 510 785 0.5;
#X obj 511 755 loadbang;
#X obj 913 225 import mrpeach;
#X obj 928 459 packOSC;
#X obj 928 595 udpsend;
#X obj 1093 397 pack 0 0;
#X obj 1111 366 t b f;
#X obj 1093 335 r pitch;
#X obj 1144 335 r octave;
#X obj 45 315 s pitch;
#X obj 187 330 s octave;
#X msg 955 551 connect localhost 12000;
#X msg 1117 553 disconnect;
#X msg 1093 428 send /pitch \$1 \$2;
#X obj 928 397 pack 0 0;
#X obj 946 366 t b f;
#X obj 928 335 r delay;
#X obj 979 335 r feedback;
#X obj 596 589 s delay;
#X obj 749 649 s feedback;
#X floatatom 799 709 5 0 0 0 - - -, f 5;
#X floatatom 833 711 5 0 0 0 - - -, f 5;
#X msg 928 428 sendtyped /delay ff \$1 \$2;
#X msg 1210 428 send /shake;
#X connect 0 0 3 0;
#X connect 0 0 106 0;
#X connect 0 1 1 1;
#X connect 1 0 4 0;
#X connect 3 0 2 0;
#X connect 4 0 2 1;
#X connect 5 0 69 0;
#X connect 6 0 69 1;
#X connect 7 0 97 0;
#X connect 8 0 14 0;
#X connect 9 0 17 0;
#X connect 10 0 70 0;
#X connect 11 0 10 0;
#X connect 12 0 8 1;
#X connect 12 0 80 0;
#X connect 13 0 12 1;
#X connect 14 0 6 0;
#X connect 15 0 7 0;
#X connect 16 0 75 0;
#X connect 17 0 12 0;
#X connect 18 0 5 0;
#X connect 18 0 11 0;
#X connect 18 0 8 0;
#X connect 19 0 18 0;
#X connect 20 0 56 0;
#X connect 21 0 22 0;
#X connect 22 0 63 0;
#X connect 23 0 86 2;
#X connect 23 0 87 2;
#X connect 23 0 127 0;
#X connect 23 0 129 0;
#X connect 24 0 34 0;
#X connect 24 1 34 1;
#X connect 24 1 83 0;
#X connect 25 0 84 0;
#X connect 26 0 50 1;
#X connect 27 0 36 0;
#X connect 28 0 35 0;
#X connect 29 0 100 0;
#X connect 32 0 104 0;
#X connect 33 0 23 0;
#X connect 34 0 25 0;
#X connect 34 1 25 1;
#X connect 35 0 89 0;
#X connect 35 0 93 0;
#X connect 36 0 37 0;
#X connect 37 0 13 0;
#X connect 38 0 68 0;
#X connect 38 0 76 0;
#X connect 39 0 16 0;
#X connect 40 0 51 0;
#X connect 42 0 92 0;
#X connect 42 0 95 0;
#X connect 43 0 98 0;
#X connect 50 0 39 0;
#X connect 50 1 57 0;
#X connect 51 0 52 0;
#X connect 52 0 50 0;
#X connect 53 0 54 0;
#X connect 54 0 55 0;
#X connect 55 0 56 1;
#X connect 55 0 58 0;
#X connect 56 0 19 0;
#X connect 57 0 53 0;
#X connect 58 0 118 0;
#X connect 59 0 117 0;
#X connect 60 0 7 1;
#X connect 61 0 96 0;
#X connect 62 0 61 0;
#X connect 63 0 19 1;
#X connect 64 0 1 0;
#X connect 65 0 0 0;
#X connect 68 0 59 0;
#X connect 69 0 60 0;
#X connect 70 0 15 0;
#X connect 75 0 38 0;
#X connect 76 0 20 0;
#X connect 77 0 38 1;
#X connect 84 0 26 0;
#X connect 84 1 27 0;
#X connect 84 2 28 0;
#X connect 84 3 29 0;
#X connect 84 4 30 0;
#X connect 84 5 31 0;
#X connect 84 6 32 0;
#X connect 84 7 33 0;
#X connect 84 8 40 0;
#X connect 84 9 41 0;
#X connect 84 10 42 0;
#X connect 84 11 43 0;
#X connect 84 12 44 0;
#X connect 84 13 45 0;
#X connect 84 14 46 0;
#X connect 84 15 47 0;
#X connect 85 0 64 1;
#X connect 85 0 65 1;
#X connect 86 0 64 0;
#X connect 87 0 65 0;
#X connect 88 0 87 1;
#X connect 89 0 90 0;
#X connect 90 0 91 0;
#X connect 91 0 21 0;
#X connect 92 0 90 1;
#X connect 93 0 94 0;
#X connect 94 0 63 1;
#X connect 95 0 94 1;
#X connect 96 0 99 0;
#X connect 97 0 1 0;
#X connect 97 0 0 0;
#X connect 97 0 86 0;
#X connect 97 0 87 0;
#X connect 98 0 101 0;
#X connect 98 0 103 1;
#X connect 99 0 103 0;
#X connect 100 0 62 0;
#X connect 101 0 102 0;
#X connect 102 0 99 1;
#X connect 103 0 97 1;
#X connect 104 0 105 0;
#X connect 105 0 86 1;
#X connect 105 0 88 0;
#X connect 105 0 126 0;
#X connect 105 0 128 0;
#X connect 108 0 85 0;
#X connect 109 0 108 0;
#X connect 111 0 112 0;
#X connect 113 0 121 0;
#X connect 114 0 113 0;
#X connect 114 1 113 1;
#X connect 115 0 113 0;
#X connect 116 0 114 0;
#X connect 119 0 112 0;
#X connect 120 0 112 0;
#X connect 121 0 111 0;
#X connect 122 0 130 0;
#X connect 123 0 122 0;
#X connect 123 1 122 1;
#X connect 124 0 122 0;
#X connect 125 0 123 0;
#X connect 130 0 111 0;
#X connect 131 0 111 0;
